<?xml version="1.0" encoding="UTF-8"?>
<svg id="Layer_2" data-name="Layer 2" xmlns="http://www.w3.org/2000/svg" viewBox="0 0 801 657.59">
  <defs>
    <style>
      .cls-1 {
        fill: #fff;
        stroke: #020202;
        stroke-miterlimit: 10;
      }
    </style>
  </defs>
  <g id="Capa_1" data-name="Capa 1">
    <g>
      <path class="cls-1" d="M276.41,53.5l426.63-1.81v288.96l-234.98,1v51.99h236.79c28.23,0,51.19-22.97,51.19-51.19V51.69c0-28.22-22.96-51.19-51.19-51.19h-428.44c-28.23,0-51.19,22.97-51.19,51.19v91h51.76l-.57-89.19Z"/>
      <path class="cls-1" d="M783.78,405.9h-315.72v60.54h288.62c24.2,0,43.81-19.62,43.81-43.82,0-9.23-7.48-16.72-16.72-16.72Z"/>
      <path class="cls-1" d="M373.22,182.44h-186.12c-30.38,0-55.09,24.71-55.09,55.1v76.6h30.2c8.05,0,15.66,1.66,22.8,4.28v-80.88c0-1.15.93-2.1,2.1-2.1h186.12c1.17,0,2.1.94,2.1,2.1v258.33h-146.8v74.92h144.71c30.38,0,55.1-24.71,55.1-55.1V237.53c0-30.38-24.72-55.1-55.1-55.1ZM280.16,546.56c-6.7,0-12.37-3.95-15.24-9.55-1.22-2.37-2.07-4.94-2.07-7.77,0-9.56,7.77-17.31,17.31-17.31s17.31,7.75,17.31,17.31c0,2.83-.85,5.41-2.07,7.77-2.87,5.6-8.54,9.55-15.24,9.55Z"/>
      <path class="cls-1" d="M162.21,347.26H33.68c-18.3,0-33.18,14.89-33.18,33.19v243.46c0,18.3,14.88,33.18,33.18,33.18h128.53c18.3,0,33.18-14.88,33.18-33.18v-243.46c0-18.3-14.88-33.19-33.18-33.19ZM40.25,387.01h115.39v210.45H40.25v-210.45ZM97.96,640.96c-3.65,0-6.91-1.48-9.39-3.75-2.82-2.56-4.63-6.16-4.63-10.26,0-7.74,6.26-14,14.03-14s13.98,6.26,13.98,14c0,4.1-1.81,7.7-4.61,10.26-2.48,2.28-5.74,3.75-9.37,3.75Z"/>
    </g>
  </g>
</svg>